<svg id="SvgjsSvg1001" width="288" height="288" xmlns="http://www.w3.org/2000/svg" version="1.1" xmlns:xlink="http://www.w3.org/1999/xlink" xmlns:svgjs="http://svgjs.com/svgjs"><defs id="SvgjsDefs1002"></defs><g id="SvgjsG1008"><svg xmlns="http://www.w3.org/2000/svg" viewBox="0 0 144.083 144" width="288" height="288"><path d="M72.041 11.166c-33.543 0-60.833 27.29-60.833 60.834 0 33.545 27.29 60.834 60.833 60.834 33.544 0 60.835-27.289 60.835-60.834-.001-33.544-27.292-60.834-60.835-60.834zm0 115.668c-30.235 0-54.833-24.598-54.833-54.834 0-30.235 24.598-54.834 54.833-54.834S126.876 41.765 126.876 72c-.001 30.236-24.6 54.834-54.835 54.834z" fill="#d6c5c5" class="color000 svgShape"></path><path d="M90.792 36.304H77.596a.877.877 0 0 0-.09.004c-13.323.042-15.063 9.345-15.07 17.476a1.014 1.014 0 0 0-.028.235v5.708H53.29a1 1 0 0 0-1 1v14.077a1 1 0 0 0 1 1h9.118v30.891a1 1 0 0 0 1 1h13.307a1 1 0 0 0 1-1v-30.89h13.076a1 1 0 0 0 1-1V60.728a1 1 0 0 0-1-1H76.715v-7.567h14.076a1 1 0 0 0 1-1V37.304a.999.999 0 0 0-.999-1z" fill="#d6c5c5" class="color000 svgShape"></path></svg></g></svg>