<svg id="SvgjsSvg1012" width="288" height="288" xmlns="http://www.w3.org/2000/svg" version="1.1" xmlns:xlink="http://www.w3.org/1999/xlink" xmlns:svgjs="http://svgjs.com/svgjs"><defs id="SvgjsDefs1013"></defs><g id="SvgjsG1014"><svg xmlns="http://www.w3.org/2000/svg" viewBox="0 0 144.083 144" width="288" height="288"><path d="M72.041 11.166c-33.543 0-60.833 27.29-60.833 60.834 0 33.544 27.29 60.834 60.833 60.834 33.544 0 60.834-27.29 60.834-60.834 0-33.544-27.291-60.834-60.834-60.834zm0 115.668c-30.235 0-54.833-24.599-54.833-54.834 0-30.235 24.598-54.834 54.833-54.834S126.875 41.765 126.875 72c0 30.235-24.599 54.834-54.834 54.834z" fill="#d6c5c5" class="color000 svgShape"></path><path d="M91.076 42.701h-38.07c-5.615 0-10.184 4.568-10.184 10.184V91.13c0 5.615 4.568 10.184 10.184 10.184h38.069c5.615 0 10.184-4.568 10.184-10.184V52.884c0-5.615-4.568-10.183-10.183-10.183zM80.847 71.899c0 4.856-3.95 8.806-8.806 8.806s-8.806-3.95-8.806-8.806c0-2.409.974-4.593 2.546-6.184H78.3a8.767 8.767 0 0 1 2.547 6.184zm2.553-21.05h8.92v9.189H83.4v-9.189zm7.676 44.464h-38.07a4.189 4.189 0 0 1-4.184-4.184V65.715h9.784a14.699 14.699 0 0 0-1.371 6.184c0 8.165 6.642 14.806 14.806 14.806s14.806-6.642 14.806-14.806c0-2.209-.5-4.299-1.371-6.184h9.783v25.414a4.189 4.189 0 0 1-4.183 4.184z" fill="#d6c5c5" class="color000 svgShape"></path></svg></g></svg>